<svg xmlns="http://www.w3.org/2000/svg" width="24" height="24" fill="none" viewBox="0 0 24 24">
  <g clip-path="url(#a)">
    <path fill="#FC5A5A" fill-rule="evenodd" d="M18.851 6.451a.92.92 0 1 0-1.3-1.302L12 10.699l-5.55-5.55a.92.92 0 0 0-1.3 1.301L10.699 12l-5.55 5.549a.922.922 0 0 0 1.004 1.502.92.92 0 0 0 .298-.2l5.55-5.55 5.55 5.55a.92.92 0 1 0 1.3-1.302l-5.55-5.55 5.55-5.548Z" clip-rule="evenodd"/>
  </g>
  <defs>
    <clipPath id="a">
      <path fill="#fff" d="M0 0h24v24H0z"/>
    </clipPath>
  </defs>
</svg>
