<svg xmlns="http://www.w3.org/2000/svg" width="56" height="56" fill="none" viewBox="0 0 56 56">
  <circle cx="28" cy="28" r="27" stroke="#FC5A5A" stroke-width="2"/>
  <g clip-path="url(#a)">
    <path fill="#FC5A5A" fill-rule="evenodd" d="M34.851 22.451a.921.921 0 0 0-1.3-1.302L28 26.699l-5.549-5.55a.921.921 0 0 0-1.302 1.302l5.55 5.55-5.55 5.548a.92.92 0 0 0 .651 1.572.92.92 0 0 0 .651-.27L28 29.301l5.55 5.55a.92.92 0 1 0 1.301-1.302L29.301 28l5.55-5.549Z" clip-rule="evenodd"/>
  </g>
  <defs>
    <clipPath id="a">
      <path fill="#fff" d="M0 0h24v24H0z" transform="translate(16 16)"/>
    </clipPath>
  </defs>
</svg>
