<svg xmlns="http://www.w3.org/2000/svg" width="24" height="24" fill="currentColor" viewBox="0 0 24 24">
  <path d="M12.003 23.274a.751.751 0 0 1-.75-.75v-4.14a8.769 8.769 0 0 1-5.506-2.56c-3.45-3.45-3.45-9.062 0-12.51 3.45-3.448 9.062-3.45 12.512 0 3.096 3.097 3.45 8.07.82 11.565l-6.49 8.112a.752.752 0 0 1-.587.282Zm0-21.05a7.321 7.321 0 0 0-5.195 2.15c-2.864 2.863-2.864 7.524 0 10.39a7.3 7.3 0 0 0 5.195 2.15.75.75 0 0 1 .75.75v2.72l5.142-6.425c2.17-2.885 1.876-7.014-.696-9.587a7.341 7.341 0 0 0-5.197-2.148Z"/>
  <path d="M15.55 8.7h-7.1a.752.752 0 0 1-.75-.75c0-.413.337-.75.75-.75h7.1a.75.75 0 0 1 0 1.5Zm-3.05 3.238H8.45a.75.75 0 0 1 0-1.5h4.05a.75.75 0 0 1 0 1.5Z"/>
</svg>
