<svg xmlns="http://www.w3.org/2000/svg" width="30" height="30" fill="currentColor" viewBox="0 0 30 30">
  <path d="M15 27.047h-.018c-3.228-.06-12.544-8.477-12.544-16.45 0-3.83 3.156-7.192 6.753-7.192 2.863 0 4.788 1.975 5.808 3.412 1.017-1.435 2.942-3.412 5.806-3.412 3.6 0 6.755 3.362 6.755 7.194 0 7.97-9.317 16.387-12.546 16.446H15v.002ZM9.193 5.281c-2.6 0-4.88 2.485-4.88 5.319 0 7.175 8.793 14.495 10.688 14.572C16.9 25.095 25.69 17.776 25.69 10.6c0-2.834-2.279-5.319-4.879-5.319-3.16 0-4.925 3.67-4.94 3.706-.287.703-1.445.703-1.734 0-.017-.037-1.781-3.706-4.942-3.706h-.002Z"/>
</svg>
