<svg xmlns="http://www.w3.org/2000/svg" width="24" height="24" fill="currentColor" viewBox="0 0 24 24">
  <g clip-path="url(#a)">
    <path d="M23.61.15a.751.751 0 0 0-1.006.34L19.74 6.266l-1.703-1.81a.75.75 0 1 0-1.092 1.028l2.443 2.596a.754.754 0 0 0 .656.227.753.753 0 0 0 .562-.41l3.342-6.74a.75.75 0 0 0-.34-1.006h.002Zm-4.592 16.475c-.083-.064-2.044-1.625-2.01-5.76.022-2.433-.78-4.596-2.256-6.09-1.324-1.34-3.116-2.083-5.046-2.092h-.013c-1.93.01-3.722.75-5.046 2.092C3.172 6.27 2.37 8.433 2.39 10.867 2.426 15 .467 16.56.39 16.62a.751.751 0 0 0 .446 1.353h4.08c.088 2.57 2.193 4.64 4.785 4.64s4.698-2.07 4.785-4.64h4.082c.32 0 .604-.206.707-.51a.756.756 0 0 0-.256-.838h-.001ZM9.7 20.513a2.696 2.696 0 0 1-2.684-2.54h5.368a2.696 2.696 0 0 1-2.684 2.54Z"/>
  </g>
  <defs>
    <clipPath id="a">
      <path d="M0 0h24v24H0z"/>
    </clipPath>
  </defs>
</svg>
