<svg xmlns="http://www.w3.org/2000/svg" width="24" height="24" fill="currentColor" viewBox="0 0 24 24">
  <path d="M23.24 3.26h-2.425V.832a.75.75 0 0 0-1.5 0V3.26H16.89a.75.75 0 1 0 0 1.5h2.426v2.424a.75.75 0 0 0 1.5 0V4.76h2.425a.75.75 0 0 0 0-1.5h-.001Zm-6.23 7.606c.02-2.434-.782-4.597-2.258-6.09-1.324-1.342-3.116-2.084-5.046-2.093h-.013c-1.93.01-3.722.75-5.046 2.092C3.172 6.27 2.37 8.433 2.39 10.867 2.426 15 .467 16.56.39 16.62a.751.751 0 0 0 .446 1.353h4.716c.11 2.226 1.94 4.007 4.194 4.007s4.083-1.78 4.194-4.007h4.625c.32 0 .604-.206.707-.51a.754.754 0 0 0-.255-.838c-.082-.064-2.043-1.625-2.008-5.76l.001.001ZM9.745 20.48a2.71 2.71 0 0 1-2.694-2.508h5.388a2.708 2.708 0 0 1-2.694 2.507v.001Zm-7.29-4.007c.702-1.095 1.457-2.904 1.434-5.618-.017-2.062.614-3.8 1.825-5.025C6.757 4.774 8.172 4.19 9.7 4.184c1.527.007 2.943.59 3.985 1.646 1.21 1.226 1.84 2.963 1.823 5.025-.022 2.714.732 4.523 1.437 5.618H2.455Z"/>
</svg>
