<svg xmlns="http://www.w3.org/2000/svg" width="30" height="30" fill="currentColor" viewBox="0 0 30 30">
  <path d="m17.558 2.803-5.185-.013h-.003c-5.467 0-9.75 4.284-9.75 9.753 0 5.122 3.983 9.007 9.331 9.212v4.785c0 .135.055.358.15.504a.93.93 0 0 0 1.293.286c.33-.21 8.091-5.175 10.11-6.882 2.377-2.013 3.8-4.963 3.804-7.89v-.022c-.008-5.458-4.288-9.733-9.75-9.735v.002Zm4.733 16.214c-1.417 1.2-6.077 4.257-8.465 5.804v-3.984a.937.937 0 0 0-.937-.937h-.495c-4.575 0-7.898-3.095-7.898-7.357 0-4.418 3.46-7.878 7.875-7.878l5.184.013h.003c4.415 0 7.875 3.457 7.877 7.87-.004 2.387-1.177 4.804-3.142 6.47h-.002Z"/>
</svg>
