<svg width="50" height="50" viewBox="0 0 50 50" fill="none" xmlns="http://www.w3.org/2000/svg">
<path d="M0.589153 12.9722V44.4126L7.92973 38.7032C13.3672 38.4313 26.5258 38.7032 29.1358 38.7032C31.7458 38.7032 33.4858 35.9845 34.0295 34.6251V12.9722C34.0295 11.8676 33.1341 10.9722 32.0295 10.9722H2.58915C1.48458 10.9722 0.589153 11.8676 0.589153 12.9722Z" fill="#00E9E9"/>
<path fill-rule="evenodd" clip-rule="evenodd" d="M41.0231 14.9907C41.8137 14.8777 43.0352 14.8803 44.0994 15.1604C45.0709 15.4161 45.6062 15.8099 45.8359 16.2471V19.9452V20.8468V24.5448C45.6062 24.9821 45.0709 25.3758 44.0994 25.6315C43.0352 25.9117 41.8137 25.9142 41.0231 25.8013C40.203 25.6841 39.4432 26.254 39.3261 27.0741C39.2089 27.8942 39.7787 28.654 40.5988 28.7711C41.7113 28.9301 43.3446 28.9324 44.8631 28.5327C46.3426 28.1433 48.1127 27.2521 48.759 25.3133C48.8099 25.1603 48.8359 25.0002 48.8359 24.8389V20.8468V19.9452V15.953C48.8359 15.7918 48.8099 15.6317 48.759 15.4787C48.1127 13.5398 46.3426 12.6487 44.8631 12.2593C43.3446 11.8595 41.7113 11.8619 40.5988 12.0208C39.7787 12.138 39.2089 12.8978 39.3261 13.7179C39.4432 14.538 40.203 15.1079 41.0231 14.9907Z" fill="#004AD9"/>
<path d="M42.4404 6.08008V39.5205L33.4686 34.6267C28.0311 34.3549 16.5037 33.8111 13.8937 33.8111C11.2837 33.8111 9.54375 31.0924 9 29.733V6.08008H42.4404Z" fill="#004AD9"/>
<mask id="mask0_34222_2124" style="mask-type:alpha" maskUnits="userSpaceOnUse" x="9" y="6" width="34" height="34">
<path fill-rule="evenodd" clip-rule="evenodd" d="M34.1652 13.4496C34.7583 13.3649 35.6835 13.3674 36.4797 13.577C37.1515 13.7539 37.4777 14.0002 37.6237 14.2221V17.068V17.782V20.6279C37.4777 20.8498 37.1515 21.0961 36.4797 21.273C35.6835 21.4825 34.7583 21.4851 34.1652 21.4003C33.3451 21.2832 32.5853 21.853 32.4681 22.6731C32.351 23.4932 32.9208 24.253 33.7409 24.3702C34.6559 24.5009 35.9929 24.5033 37.2434 24.1741C38.4548 23.8552 39.9851 23.1052 40.5468 21.4203C40.5977 21.2673 40.6237 21.1072 40.6237 20.9459V17.782V17.068V13.904C40.6237 13.7428 40.5977 13.5827 40.5468 13.4297C39.9851 11.7448 38.4548 10.9947 37.2434 10.6759C35.9929 10.3467 34.6559 10.3491 33.7409 10.4798C32.9208 10.5969 32.351 11.3567 32.4681 12.1768C32.5853 12.9969 33.3451 13.5668 34.1652 13.4496Z" fill="#0081BF"/>
<path d="M43 6V40L33.878 35.0244C28.3496 34.748 16.6293 34.1951 13.9756 34.1951C11.322 34.1951 9.55285 31.4309 9 30.0488V6H43Z" fill="#0081BF"/>
</mask>
<g mask="url(#mask0_34222_2124)">
<path d="M0.589153 12.9722V44.4126L7.92973 38.7032C13.3672 38.4313 26.5258 38.7032 29.1358 38.7032C31.7458 38.7032 33.4858 35.9845 34.0295 34.6251V12.9722C34.0295 11.8676 33.1341 10.9722 32.0295 10.9722H2.58915C1.48458 10.9722 0.589153 11.8676 0.589153 12.9722Z" fill="#281C56"/>
<circle cx="14.6392" cy="21.7603" r="1" fill="white"/>
<circle cx="18.6392" cy="21.7603" r="1" fill="white"/>
<circle cx="22.6392" cy="21.7603" r="1" fill="white"/>
</g>
</svg>
