<svg xmlns="http://www.w3.org/2000/svg" width="24" height="24" fill="currentColor" viewBox="0 0 24 24">
  <path fill-rule="evenodd" d="M12.36 22.375h-.722a2.26 2.26 0 0 1-2.262-2.064l-.014-.147a.77.77 0 0 0-.472-.644.763.763 0 0 0-.798.115l-.116.097c-.868.725-2.253.663-3.06-.14l-.51-.51a2.262 2.262 0 0 1-.14-3.06l.098-.118a.768.768 0 0 0 .122-.787.768.768 0 0 0-.646-.48l-.15-.014a2.26 2.26 0 0 1-2.067-2.262v-.722a2.26 2.26 0 0 1 2.064-2.262l.156-.014a.777.777 0 0 0 .522-1.268l-.094-.116a2.261 2.261 0 0 1 .137-3.06l.512-.512c.804-.804 2.188-.865 3.06-.14l.116.098c.218.184.528.23.79.122a.769.769 0 0 0 .477-.643l.014-.153a2.259 2.259 0 0 1 2.262-2.066h.722a2.26 2.26 0 0 1 2.262 2.064l.014.156c.025.285.206.53.472.64.277.117.58.062.794-.117l.12-.102c.867-.723 2.254-.662 3.06.14l.51.512c.836.838.896 2.153.14 3.06l-.1.118a.758.758 0 0 0-.123.788c.112.27.36.45.646.478l.152.014a2.26 2.26 0 0 1 2.067 2.262v.723a2.26 2.26 0 0 1-2.064 2.262l-.155.014a.763.763 0 0 0-.64.47.77.77 0 0 0 .117.795l.1.12c.756.905.696 2.22-.14 3.06l-.51.51c-.807.804-2.19.864-3.06.14l-.115-.096a.78.78 0 0 0-.79-.122.772.772 0 0 0-.48.646l-.014.15a2.26 2.26 0 0 1-2.262 2.06l-.002.005ZM8.21 12c0-2.09 1.7-3.79 3.79-3.79s3.79 1.7 3.79 3.79-1.7 3.79-3.79 3.79-3.79-1.7-3.79-3.79Zm1.5 0A2.292 2.292 0 0 0 12 14.29 2.292 2.292 0 0 0 14.29 12c0-1.264-1.03-2.29-2.29-2.29A2.294 2.294 0 0 0 9.71 12Z" clip-rule="evenodd"/>
</svg>
